<svg xmlns="http://www.w3.org/2000/svg" viewBox="0 0 128 160">
  <defs>
    <linearGradient id="torsoD" x1="0" x2="0" y1="0" y2="1">
      <stop offset="0" stop-color="#6b7280"/>
      <stop offset="1" stop-color="#374151"/>
    </linearGradient>
    <linearGradient id="skin" x1="0" x2="0" y1="0" y2="1">
      <stop offset="0" stop-color="#ffe6c7"/>
      <stop offset="1" stop-color="#ffd2a6"/>
    </linearGradient>
    <filter id="drop" x="-20%" y="-20%" width="140%" height="140%">
      <feDropShadow dx="0" dy="6" stdDeviation="6" flood-color="rgba(0,0,0,.3)"/>
    </filter>
  </defs>
  <rect x="14" y="6" width="100" height="6" rx="3" fill="rgba(255,255,255,.7)"/>
  <rect x="30" y="12" width="2" height="46" fill="rgba(255,255,255,.65)"/>
  <rect x="64" y="12" width="2" height="46" fill="rgba(255,255,255,.65)"/>
  <rect x="98" y="12" width="2" height="46" fill="rgba(255,255,255,.65)"/>
  <g transform="translate(0,20)" filter="url(#drop)">
    <circle cx="64" cy="32" r="16" fill="url(#skin)" stroke="rgba(0,0,0,.1)" stroke-width="2"/>
    <circle cx="58" cy="30" r="3" fill="#222"/>
    <circle cx="70" cy="30" r="3" fill="#222"/>
    <rect x="46" y="50" width="36" height="42" rx="10" fill="url(#torsoD)" stroke="rgba(255,255,255,.35)" stroke-width="2"/>
    <!-- tie -->
    <path d="M64 52 l4 8 -4 10 -4 -10z" fill="#ef4444"/>
    <rect x="36" y="56" width="10" height="34" rx="6" fill="url(#skin)" stroke="rgba(0,0,0,.06)" stroke-width="2"/>
    <rect x="82" y="56" width="10" height="34" rx="6" fill="url(#skin)" stroke="rgba(0,0,0,.06)" stroke-width="2"/>
    <rect x="52" y="94" width="10" height="36" rx="6" fill="#1f2937" stroke="rgba(0,0,0,.15)" stroke-width="2"/>
    <rect x="66" y="94" width="10" height="36" rx="6" fill="#1f2937" stroke="rgba(0,0,0,.15)" stroke-width="2"/>
  </g>
</svg>

